<svg width="246" height="88" viewBox="0 0 246 88" fill="none" xmlns="http://www.w3.org/2000/svg">
<path d="M20.1631 55.1744L11.6574 43.4075V55.1744H3.10156V17.9629H11.6574V38.5298L20.1131 27.1149H30.6702L19.0624 41.1949L30.7703 55.1744H20.1631ZM42.5865 31.7915C43.5872 30.2494 44.838 29.0426 46.3391 28.1709C47.8401 27.2658 49.5079 26.8132 51.3424 26.8132V35.9149H48.9908C46.8561 35.9149 45.255 36.3843 44.1876 37.3229C43.1202 38.2281 42.5865 39.8372 42.5865 42.1504V55.1744H34.0307V27.1149H42.5865V31.7915ZM81.75 40.6921C81.75 41.4967 81.7 42.3347 81.5999 43.2064H62.2366C62.37 44.9496 62.9204 46.2906 63.8877 47.2292C64.8884 48.1344 66.1058 48.5869 67.5402 48.5869C69.6751 48.5869 71.1595 47.6818 71.9934 45.8715H81.0995C80.6326 47.7153 79.782 49.3747 78.5478 50.8498C77.347 52.3248 75.8293 53.4814 73.9947 54.3195C72.1602 55.1576 70.1088 55.5767 67.8404 55.5767C65.1052 55.5767 62.6702 54.99 60.5354 53.8167C58.4006 52.6433 56.7328 50.9671 55.532 48.7881C54.3312 46.609 53.7308 44.0612 53.7308 41.1447C53.7308 38.2281 54.3145 35.6803 55.482 33.5012C56.6828 31.3222 58.3506 29.646 60.4854 28.4727C62.6202 27.2993 65.0718 26.7127 67.8404 26.7127C70.5424 26.7127 72.944 27.2826 75.0454 28.4224C77.1469 29.5622 78.7813 31.1881 79.9488 33.3001C81.1496 35.4121 81.75 37.8761 81.75 40.6921ZM72.9941 38.4292C72.9941 36.9542 72.4937 35.7808 71.493 34.9092C70.4924 34.0376 69.2413 33.6018 67.7403 33.6018C66.306 33.6018 65.0885 34.0208 64.0878 34.8589C63.1205 35.697 62.5201 36.8871 62.2866 38.4292H72.9941ZM84.5623 41.0944C84.5623 38.2113 85.096 35.6803 86.1634 33.5012C87.2641 31.3222 88.7485 29.646 90.6164 28.4727C92.4843 27.2993 94.5691 26.7127 96.8706 26.7127C98.8386 26.7127 100.556 27.1149 102.024 27.9195C103.525 28.7241 104.676 29.7801 105.476 31.0875V27.1149H114.032V55.1744H105.476V51.2018C104.643 52.5092 103.475 53.5652 101.974 54.3698C100.506 55.1744 98.7886 55.5767 96.8206 55.5767C94.5524 55.5767 92.4843 54.99 90.6164 53.8167C88.7485 52.6098 87.2641 50.9168 86.1634 48.7378C85.096 46.5252 84.5623 43.9774 84.5623 41.0944ZM105.476 41.1447C105.476 38.9991 104.876 37.3062 103.675 36.0658C102.508 34.8254 101.073 34.2052 99.3723 34.2052C97.6712 34.2052 96.2202 34.8254 95.0194 36.0658C93.8519 37.2727 93.2682 38.9488 93.2682 41.0944C93.2682 43.2399 93.8519 44.9496 95.0194 46.2235C96.2202 47.4639 97.6712 48.0841 99.3723 48.0841C101.073 48.0841 102.508 47.4639 103.675 46.2235C104.876 44.9831 105.476 43.2902 105.476 41.1447ZM135.782 47.8829V55.1744H131.429C128.327 55.1744 125.909 54.4201 124.175 52.9115C122.44 51.3694 121.573 48.8719 121.573 45.4189V34.2555H118.17V27.1149H121.573V20.2761H130.129V27.1149H135.732V34.2555H130.129V45.5195C130.129 46.3576 130.329 46.961 130.729 47.3298C131.129 47.6986 131.796 47.8829 132.73 47.8829H135.782ZM144.851 24.1984C143.35 24.1984 142.116 23.7626 141.149 22.8909C140.215 21.9858 139.748 20.8795 139.748 19.5721C139.748 18.2311 140.215 17.1248 141.149 16.2532C142.116 15.3481 143.35 14.8955 144.851 14.8955C146.319 14.8955 147.52 15.3481 148.454 16.2532C149.421 17.1248 149.904 18.2311 149.904 19.5721C149.904 20.8795 149.421 21.9858 148.454 22.8909C147.52 23.7626 146.319 24.1984 144.851 24.1984ZM149.104 27.1149V55.1744H140.548V27.1149H149.104ZM168.013 55.5767C165.277 55.5767 162.809 54.99 160.608 53.8167C158.439 52.6433 156.722 50.9671 155.454 48.7881C154.22 46.609 153.603 44.0612 153.603 41.1447C153.603 38.2616 154.237 35.7306 155.504 33.5515C156.772 31.3389 158.506 29.646 160.708 28.4727C162.909 27.2993 165.377 26.7127 168.113 26.7127C170.848 26.7127 173.316 27.2993 175.518 28.4727C177.719 29.646 179.454 31.3389 180.721 33.5515C181.989 35.7306 182.622 38.2616 182.622 41.1447C182.622 44.0277 181.972 46.5755 180.671 48.7881C179.404 50.9671 177.652 52.6433 175.418 53.8167C173.216 54.99 170.748 55.5767 168.013 55.5767ZM168.013 48.1344C169.647 48.1344 171.031 47.5309 172.165 46.3241C173.333 45.1172 173.917 43.3907 173.917 41.1447C173.917 38.8986 173.35 37.1721 172.215 35.9652C171.115 34.7584 169.747 34.1549 168.113 34.1549C166.445 34.1549 165.061 34.7584 163.96 35.9652C162.859 37.1386 162.309 38.865 162.309 41.1447C162.309 43.3907 162.842 45.1172 163.91 46.3241C165.011 47.5309 166.378 48.1344 168.013 48.1344ZM204.173 26.8132C207.442 26.8132 210.044 27.886 211.979 30.0315C213.947 32.1435 214.93 35.0601 214.93 38.7812V55.1744H206.425V39.9378C206.425 38.0605 205.941 36.6022 204.974 35.5629C204.006 34.5237 202.706 34.0041 201.071 34.0041C199.437 34.0041 198.136 34.5237 197.168 35.5629C196.201 36.6022 195.717 38.0605 195.717 39.9378V55.1744H187.162V27.1149H195.717V30.8361C196.585 29.5957 197.752 28.6235 199.22 27.9195C200.688 27.182 202.339 26.8132 204.173 26.8132ZM232.234 55.5767C229.799 55.5767 227.631 55.1576 225.729 54.3195C223.828 53.4814 222.327 52.3416 221.226 50.9001C220.126 49.425 219.509 47.7824 219.375 45.9721H227.831C227.931 46.9443 228.381 47.7321 229.182 48.3355C229.982 48.9389 230.966 49.2407 232.134 49.2407C233.201 49.2407 234.018 49.0395 234.585 48.6372C235.186 48.2014 235.486 47.6483 235.486 46.9778C235.486 46.1732 235.069 45.5866 234.235 45.2178C233.401 44.8155 232.05 44.3797 230.183 43.9104C228.181 43.441 226.513 42.9549 225.179 42.4521C223.845 41.9157 222.694 41.0944 221.727 39.9881C220.759 38.8483 220.276 37.3229 220.276 35.4121C220.276 33.8029 220.709 32.3447 221.577 31.0372C222.477 29.6963 223.778 28.6403 225.479 27.8692C227.214 27.0982 229.265 26.7127 231.633 26.7127C235.136 26.7127 237.888 27.5843 239.889 29.3275C241.924 31.0707 243.091 33.3839 243.391 36.2669H235.486C235.353 35.2948 234.919 34.5237 234.185 33.9538C233.485 33.3839 232.551 33.0989 231.383 33.0989C230.383 33.0989 229.615 33.3001 229.082 33.7024C228.548 34.0711 228.281 34.5907 228.281 35.2612C228.281 36.0658 228.698 36.6692 229.532 37.0715C230.399 37.4738 231.734 37.8761 233.535 38.2784C235.603 38.8147 237.287 39.3511 238.588 39.8875C239.889 40.3904 241.023 41.2285 241.99 42.4018C242.991 43.5416 243.508 45.0837 243.542 47.0281C243.542 48.6707 243.075 50.1458 242.141 51.4532C241.24 52.7271 239.922 53.7328 238.188 54.4704C236.487 55.2079 234.502 55.5767 232.234 55.5767Z" fill="#E5D525"/>
<path d="M147.378 69.2492V81.016H144.527V76.1718H140.09V81.016H137.238V69.2492H140.09V73.8587H144.527V69.2492H147.378ZM157.059 78.9375H152.69L151.989 81.016H149.004L153.24 69.2492H156.542L160.779 81.016H157.76L157.059 78.9375ZM156.326 76.725L154.875 72.4172L153.44 76.725H156.326ZM165.253 69.2492V81.016H162.401V69.2492H165.253ZM173.624 81.016L171.189 76.5741H170.505V81.016H167.653V69.2492H172.44C173.363 69.2492 174.147 69.4112 174.792 69.7353C175.447 70.0593 175.937 70.5063 176.259 71.0762C176.582 71.6349 176.743 72.2607 176.743 72.9535C176.743 73.7358 176.52 74.4342 176.076 75.0488C175.642 75.6634 174.997 76.0992 174.141 76.3562L176.843 81.016H173.624ZM170.505 74.5459H172.273C172.796 74.5459 173.185 74.4174 173.441 74.1604C173.707 73.9034 173.841 73.5402 173.841 73.0709C173.841 72.6239 173.707 72.2719 173.441 72.0149C173.185 71.7579 172.796 71.6293 172.273 71.6293H170.505V74.5459ZM186.971 81.1334C186.114 81.1334 185.347 80.9937 184.669 80.7143C183.991 80.4349 183.446 80.0215 183.035 79.4739C182.634 78.9264 182.423 78.2671 182.401 77.496H185.436C185.481 77.9318 185.631 78.2671 185.887 78.5017C186.142 78.7252 186.476 78.837 186.887 78.837C187.31 78.837 187.643 78.742 187.888 78.552C188.132 78.3509 188.255 78.0771 188.255 77.7307C188.255 77.4401 188.155 77.1999 187.955 77.0099C187.766 76.82 187.527 76.6635 187.237 76.5406C186.959 76.4177 186.559 76.278 186.037 76.1215C185.281 75.8869 184.663 75.6522 184.185 75.4175C183.707 75.1829 183.296 74.8365 182.951 74.3783C182.607 73.9201 182.434 73.3223 182.434 72.5848C182.434 71.4897 182.829 70.6348 183.618 70.0202C184.408 69.3944 185.436 69.0815 186.704 69.0815C187.994 69.0815 189.033 69.3944 189.823 70.0202C190.612 70.6348 191.034 71.4953 191.09 72.6015H188.005C187.982 72.2216 187.843 71.9255 187.588 71.7132C187.332 71.4897 187.004 71.3779 186.604 71.3779C186.259 71.3779 185.981 71.4729 185.77 71.6629C185.559 71.8417 185.453 72.1043 185.453 72.4507C185.453 72.8306 185.631 73.1268 185.987 73.3391C186.342 73.5514 186.898 73.7805 187.654 74.0263C188.41 74.2833 189.022 74.5292 189.489 74.7638C189.967 74.9985 190.378 75.3393 190.723 75.7863C191.068 76.2333 191.24 76.8088 191.24 77.5128C191.24 78.1833 191.068 78.7923 190.723 79.3398C190.39 79.8874 189.9 80.3232 189.255 80.6473C188.611 80.9713 187.849 81.1334 186.971 81.1334ZM201.751 69.2492V71.5455H198.649V81.016H195.797V71.5455H192.695V69.2492H201.751ZM206.318 69.2492V76.2892C206.318 76.9932 206.491 77.5351 206.835 77.9151C207.18 78.295 207.686 78.485 208.353 78.485C209.02 78.485 209.532 78.295 209.888 77.9151C210.243 77.5351 210.421 76.9932 210.421 76.2892V69.2492H213.273V76.2724C213.273 77.3228 213.051 78.2112 212.606 78.9375C212.161 79.6639 211.561 80.2114 210.805 80.5802C210.06 80.949 209.226 81.1334 208.303 81.1334C207.38 81.1334 206.552 80.9546 205.818 80.597C205.095 80.2282 204.523 79.6807 204.1 78.9543C203.678 78.2168 203.466 77.3228 203.466 76.2724V69.2492H206.318ZM219.995 69.2492C221.229 69.2492 222.308 69.495 223.231 69.9867C224.153 70.4784 224.865 71.1712 225.365 72.0652C225.877 72.948 226.133 73.9704 226.133 75.1326C226.133 76.2836 225.877 77.3061 225.365 78.2C224.865 79.094 224.148 79.7868 223.214 80.2785C222.291 80.7702 221.218 81.016 219.995 81.016H215.609V69.2492H219.995ZM219.812 78.5353C220.89 78.5353 221.73 78.2391 222.33 77.6469C222.93 77.0546 223.231 76.2165 223.231 75.1326C223.231 74.0487 222.93 73.205 222.33 72.6015C221.73 71.9981 220.89 71.6964 219.812 71.6964H218.461V78.5353H219.812ZM230.912 69.2492V81.016H228.06V69.2492H230.912ZM238.849 81.1334C237.749 81.1334 236.737 80.8763 235.814 80.3623C234.902 79.8483 234.174 79.1331 233.629 78.2168C233.096 77.2893 232.829 76.2501 232.829 75.0991C232.829 73.9481 233.096 72.9144 233.629 71.9981C234.174 71.0818 234.902 70.3666 235.814 69.8526C236.737 69.3386 237.749 69.0815 238.849 69.0815C239.95 69.0815 240.956 69.3386 241.868 69.8526C242.791 70.3666 243.514 71.0818 244.036 71.9981C244.57 72.9144 244.837 73.9481 244.837 75.0991C244.837 76.2501 244.57 77.2893 244.036 78.2168C243.503 79.1331 242.78 79.8483 241.868 80.3623C240.956 80.8763 239.95 81.1334 238.849 81.1334ZM238.849 78.5185C239.783 78.5185 240.528 78.2056 241.084 77.5798C241.651 76.9541 241.935 76.1271 241.935 75.0991C241.935 74.0598 241.651 73.2329 241.084 72.6183C240.528 71.9925 239.783 71.6796 238.849 71.6796C237.904 71.6796 237.148 71.9869 236.581 72.6015C236.025 73.2161 235.747 74.0487 235.747 75.0991C235.747 76.1383 236.025 76.9708 236.581 77.5966C237.148 78.2112 237.904 78.5185 238.849 78.5185Z" fill="white"/>
</svg>
